<svg xmlns="http://www.w3.org/2000/svg" viewBox="0 0 94.04 95.34">
    <g id="Layer_2" data-name="Layer 2">
        <g id="Layer_1-2" data-name="Layer 1">
            <path fill="#5D2A68" d="M94,55.18c0,11.22,0,22.44,0,33.67,0,5.14-1.3,6.47-6.35,6.48q-33.56,0-67.09,0c-4.89,0-6.52-1.63-6.53-6.48q0-15.52,0-31c0-3.85.18-4,4-4,3.13,0,6.25,0,9.37,0,3.78,0,3.92.3,2.3,3.75a5.66,5.66,0,0,0,1.6,7.33,5.73,5.73,0,0,0,7,0c2.21-1.7,2.78-4.51,1.51-7.41-1.38-3.17-1.14-3.59,2.29-3.66,2.75-.05,5.5-.06,8.24,0,1.56,0,2.35-.6,2.37-2.16,0-1,.07-2,0-3-.05-1.35.42-2.89-.53-4s-2.37-.14-3.57-.25C44,44,40.27,40.23,40.4,35.82c.14-4.62,3.72-8.73,8.68-8.35,4.09.32,3.64-.6,3.67-3.69,0-1.75,0-3.5,0-5.24.12-2.88.42-3.22,3.29-3.28,3.5-.08,7,0,10.5,0H86.42c6.89,0,7.61.71,7.61,7.41Q94,38.92,94,55.18ZM35.11,92.61c5,0,10,0,15,0,2.1,0,2.91-.83,2.78-2.92-.14-2.36-.09-4.73-.1-7.09,0-4.34.1-4.41,4.17-2.71a5.65,5.65,0,0,0,6.44-1.49,5.38,5.38,0,0,0,1-6.22,5.8,5.8,0,0,0-5.76-3.34,8.24,8.24,0,0,0-2.81.93c-2.22,1.11-2.84.78-3-1.68-.15-2.24,0-4.48-.06-6.73,0-4.83,0-4.83-4.7-4.84s-4.63,0-5,4.73c-.33,4.48-3.57,7.41-8.23,7.42s-7.92-2.82-8.3-7.32c-.41-4.85-.41-4.85-5.24-4.83-.5,0-1,0-1.5,0-2.26-.19-3.06.84-3,3.08.08,9.71,0,19.42.06,29.13,0,3.23.68,3.81,4.07,3.85C25.63,92.66,30.37,92.62,35.11,92.61ZM91.36,36.25c0-4.61,0-9.22,0-13.83,0-4.07-.44-4.57-4.45-4.59-9.23-.06-18.47,0-27.71,0-3.66,0-3.79.18-3.85,3.79-.05,2.74,0,5.48-.08,8.22-.05,1.63-.88,2.27-2.47,1.5a14.39,14.39,0,0,0-2-1,5.65,5.65,0,0,0-6.53,2.41,5.4,5.4,0,0,0,.32,6.59c1.69,2.26,4.07,2.84,7,1.7,3.43-1.35,3.7-1.18,3.77,2.59,0,1.75,0,3.49,0,5.24,0,4.87,0,4.87,4.92,4.87,4.44,0,4.44,0,4.72-4.43a8.26,8.26,0,0,1,8.51-7.7A8.57,8.57,0,0,1,82,49.39c.11,1.33-.83,3,.33,3.9s2.89.29,4.37.4c.62,0,1.25,0,1.87,0,2.14.19,2.81-.84,2.78-2.87C91.3,46,91.36,41.11,91.36,36.25Zm0,38.15c0-4.86,0-9.72,0-14.58,0-3.09-.13-3.19-3.13-3.26s-5.75.06-8.62-.07c-2.33-.11-2.62-.72-1.62-2.72.22-.45.52-.85.71-1.31a5.71,5.71,0,0,0-8.25-7.15A5.75,5.75,0,0,0,68,51.81c.25.83.81,1.55,1.1,2.37.48,1.32.07,2.24-1.45,2.29-1.87.08-3.75.07-5.62.07-7,0-7.34.34-6.64,7.38,0,.13,0,.25,0,.38.07,1.3.54,2.15,2.07,1.93a10.56,10.56,0,0,1,1.87-.08,8.38,8.38,0,0,1,8.45,8.19,8.83,8.83,0,0,1-8.39,8.84c-3.63.15-3.64.15-3.65,3.7,0,1.12.06,2.25,0,3.37-.09,1.8.82,2.38,2.51,2.37,9.86,0,19.73,0,29.59,0,2.91,0,3.47-.66,3.51-3.6C91.41,84.13,91.36,79.26,91.36,74.4Z"/>
            <path fill="#5D2A68" d="M6.58,37.74A11.42,11.42,0,0,1,6.8,36.2c.8-3.28.8-3.28-2.35-4.56C-.8,29.51-.79,29.51,1.34,24.19c2.68-6.7,5.33-13.42,8-20.11C11.12-.23,12.49-.81,16.82.88q11,4.31,21.89,8.7c3.13,1.26,3.29,1.64,2.13,4.7-1,2.56-2,5.11-3.12,7.6-.61,1.34-1.58,2-2.81.46A7.18,7.18,0,0,0,33.57,21a4,4,0,0,0-4.88,0,3.79,3.79,0,0,0-1.52,4.29,4,4,0,0,0,3.36,3.08c1.15.26,2.69-.75,3.43.71s-.12,2.9-.66,4.28C32.67,35,32,36.64,31.37,38.25c-1.45,3.47-1.5,3.49-4.85,2.18-1.28-.5-2.57-1-3.83-1.52s-1.86-.22-2.25,1a6.93,6.93,0,0,1-3.76,4.42A7.09,7.09,0,0,1,6.58,37.74Zm17.7-13.5c0-5,3.91-7.61,9.47-6.34,2.55.58,2.61.39,3.88-2.87.83-2.12,0-2.89-1.82-3.59-6.51-2.52-13-5.16-19.47-7.7-3.21-1.26-3.39-1.17-4.66,2-2.28,5.65-4.56,11.31-6.74,17S2.11,27.6,8,30c1.46.6,3.42.66,4.14,2.28.82,1.85-1.43,2.34-2.09,3.58a4.16,4.16,0,0,0,1.94,6,4,4,0,0,0,5.5-2.33,7.62,7.62,0,0,0,.3-2.57c0-2.05,1.23-2.3,2.74-1.84s3.25,1.25,4.88,1.87c3.05,1.16,3.06,1.15,4.27-1.95,1.11-2.82,1.12-2.84-1.71-4.37A6.65,6.65,0,0,1,24.28,24.24Z"/>
        </g>
    </g>
</svg>